<svg xmlns="http://www.w3.org/2000/svg" width="60" height="36" viewBox="0 0 60 36"><title>Fill 10</title><path d="M41.8.02c-2.78 0-5.4.63-7.74 1.75v8.52c1.95-2.01 4.7-3.27 7.74-3.27 5.93 0 10.74 4.77 10.74 10.66 0 5.89-4.81 10.66-10.74 10.66-5.93 0-10.74-4.77-10.74-10.66V0H24v18.55l.03.03c.27 5.38 2.97 10.13 7.03 13.19 2.98 2.24 6.7 3.58 10.74 3.58 9.83 0 17.8-7.91 17.8-17.67C59.6 7.93 51.63.02 41.8.02" fill="#fff"/><path d="M30.17 0h-7.06L13 14.7h7.39L30.17 0M0 35.17h7.85L18.61 19h-7.49L0 35.17" fill="#fff"/></svg>